<?xml version="1.0" encoding="UTF-8"?>
<svg version="1.1" xmlns="http://www.w3.org/2000/svg" width="48" height="48">
<path d="M0 0 C4.68796317 2.8950501 8.77605467 6.42344712 10.234375 11.89453125 C11.16656452 18.74158704 11.3930195 24.99387098 7.671875 31.01953125 C3.66347868 35.99068326 0.31000422 38.47580101 -6.0078125 39.3359375 C-13.1275177 39.69575056 -18.34453314 39.19135672 -23.98828125 34.640625 C-29.08369757 29.63479842 -30.03494232 26.05750776 -30.390625 19.01953125 C-30.17838344 12.13997715 -28.58962241 7.80486419 -23.765625 2.89453125 C-17.29271618 -2.6344117 -7.84970384 -3.13766411 0 0 Z " fill="#3C4D54" transform="translate(33.765625,5.10546875)"/>
<path d="M0 0 C1.93627769 -0.10807131 3.87427756 -0.1856225 5.8125 -0.25 C7.43091797 -0.31960937 7.43091797 -0.31960937 9.08203125 -0.390625 C12 0 12 0 13.88671875 2.015625 C14.25410156 2.67046875 14.62148438 3.3253125 15 4 C18.43230448 3.73606499 18.43230448 3.73606499 22 3 C22.66 2.01 23.32 1.02 24 0 C26.8203125 -0.29296875 26.8203125 -0.29296875 30.125 -0.1875 C31.76855469 -0.14689453 31.76855469 -0.14689453 33.4453125 -0.10546875 C34.70988281 -0.05326172 34.70988281 -0.05326172 36 0 C35.521671 5.02245446 34.16310458 8.0674916 31 12 C25.75119332 16.04595515 21.79911431 17.45971349 15.15234375 17.3359375 C10.22645328 16.56710523 6.49793937 13.83162078 3.38671875 10.02734375 C0.91990695 6.30975413 0 4.60071502 0 0 Z " fill="#FBFBFB" transform="translate(6,25)"/>
<path d="M0 0 C4.98296004 2.06562783 7.32391026 5.46490232 10.125 10 C10.8125 11.875 10.8125 11.875 10.8125 15.875 C8.89708862 15.98341951 6.97990227 16.06078079 5.0625 16.125 C3.46148437 16.19460937 3.46148437 16.19460937 1.828125 16.265625 C-1.86560816 15.78716215 -2.78673447 14.60964683 -5.1875 11.875 C-7.73077108 11.20814062 -7.73077108 11.20814062 -10.1875 11.875 C-10.60515625 12.54015625 -11.0228125 13.2053125 -11.453125 13.890625 C-13.1875 15.875 -13.1875 15.875 -16.10546875 16.265625 C-17.18441406 16.21921875 -18.26335938 16.1728125 -19.375 16.125 C-20.46167969 16.08890625 -21.54835938 16.0528125 -22.66796875 16.015625 C-23.91513672 15.94601563 -23.91513672 15.94601563 -25.1875 15.875 C-24.63945168 10.12049263 -22.90859163 6.17374925 -18.42578125 2.38671875 C-12.21024849 -1.94827954 -7.12825178 -2.2200559 0 0 Z " fill="#FB3C01" transform="translate(31.1875,7.125)"/>
<path d="M0 0 C4.6648296 2.85586103 8.82591318 6.43358089 10.2421875 11.88671875 C10.54316081 16.24317993 10.4781183 20.52855256 10.2421875 24.88671875 C9.2521875 25.21671875 8.2621875 25.54671875 7.2421875 25.88671875 C7.5721875 23.90671875 7.9021875 21.92671875 8.2421875 19.88671875 C6.30384754 19.97386892 4.3664446 20.08204839 2.4296875 20.19921875 C0.81126953 20.28623047 0.81126953 20.28623047 -0.83984375 20.375 C-3.93278767 20.91740382 -4.88804153 21.43961499 -6.7578125 23.88671875 C-6.7578125 22.89671875 -6.7578125 21.90671875 -6.7578125 20.88671875 C-7.06869618 19.21571898 -7.39861582 17.54800338 -7.7578125 15.88671875 C-9.7378125 16.21671875 -11.7178125 16.54671875 -13.7578125 16.88671875 C-13.7578125 13.88671875 -13.7578125 13.88671875 -12.7578125 12.88671875 C-9.3203125 13.07421875 -9.3203125 13.07421875 -5.7578125 13.88671875 C-5.0978125 15.20671875 -4.4378125 16.52671875 -3.7578125 17.88671875 C0.2021875 17.88671875 4.1621875 17.88671875 8.2421875 17.88671875 C5.54165753 9.54676656 5.54165753 9.54676656 -0.7578125 3.88671875 C-5.27717373 1.87811376 -9.8572246 0.97072101 -14.7578125 1.88671875 C-18.39620871 3.57899606 -21.57638558 5.65929954 -24.36328125 8.5546875 C-25.7578125 9.88671875 -25.7578125 9.88671875 -27.7578125 9.88671875 C-26.08965857 4.89076796 -23.99912645 2.81076048 -19.5859375 0.0703125 C-13.31008779 -2.55618261 -6.30577046 -2.54553057 0 0 Z " fill="#3E484E" transform="translate(33.7578125,5.11328125)"/>
<path d="M0 0 C1.32 0 2.64 0 4 0 C3.521671 5.02245446 2.16310458 8.0674916 -1 12 C-2.93424491 13.53226247 -4.86652052 14.73930758 -7 16 C-7 15.01 -7 14.02 -7 13 C-6.34 13 -5.68 13 -5 13 C-3.25150329 8.6960081 -1.6229639 4.35249409 0 0 Z " fill="#C9D2D6" transform="translate(38,25)"/>
<path d="M0 0 C5.46418649 2.35953508 8.19483078 5.02147079 11.25 10.0625 C12 12 12 12 12 16 C10.68 16 9.36 16 8 16 C7.80664062 15.39671875 7.61328125 14.7934375 7.4140625 14.171875 C7.15367188 13.37265625 6.89328125 12.5734375 6.625 11.75 C6.36976562 10.96109375 6.11453125 10.1721875 5.8515625 9.359375 C5.03509883 7.09724629 4.26080065 5.04993486 3 3 C2.01 2.67 1.02 2.34 0 2 C0 1.34 0 0.68 0 0 Z " fill="#D32E04" transform="translate(30,7)"/>
<path d="M0 0 C2.625 0.375 2.625 0.375 5 1 C5.625 3.375 5.625 3.375 6 6 C5.34 6.66 4.68 7.32 4 8 C1.375 7.625 1.375 7.625 -1 7 C-1.625 4.625 -1.625 4.625 -2 2 C-1.34 1.34 -0.68 0.68 0 0 Z " fill="#C3C7CA" transform="translate(22,20)"/>
</svg>
